<?xml version="1.0" standalone="no"?>
<!DOCTYPE svg PUBLIC "-//W3C//DTD SVG 20010904//EN"
 "http://www.w3.org/TR/2001/REC-SVG-20010904/DTD/svg10.dtd">
<svg version="1.0" xmlns="http://www.w3.org/2000/svg"
 width="100.000000pt" height="100.000000pt" viewBox="0 0 100.000000 100.000000"
 preserveAspectRatio="xMidYMid meet">

<g transform="translate(0.000000,100.000000) scale(0.100000,-0.100000)"
fill="#000000" stroke="none">
<path d="M375 937 c-18 -15 -31 -41 -39 -77 l-12 -55 -63 -5 c-47 -4 -66 -10
-77 -25 -51 -69 -14 -155 66 -155 37 0 40 -2 40 -26 0 -26 -1 -26 -42 -18 -63
12 -114 10 -132 -5 -9 -7 -21 -31 -28 -53 -10 -34 -9 -42 9 -66 19 -26 30 -30
154 -51 4 -1 8 -43 11 -94 3 -79 8 -100 32 -140 56 -97 148 -134 311 -124 145
8 216 45 256 132 15 32 19 65 19 163 0 123 0 124 -29 153 -33 33 -58 36 -101
14 -17 -9 -30 -11 -30 -6 0 20 -56 39 -135 46 -111 9 -117 12 -113 43 3 27 4
27 94 32 55 3 97 10 107 19 38 31 29 129 -14 151 -10 6 -47 10 -83 10 l-65 0
2 56 c2 50 -1 58 -26 80 -35 30 -78 31 -112 1z m90 -37 c15 -17 16 -25 5 -70
-7 -30 -9 -55 -4 -60 5 -5 47 -10 94 -12 83 -3 85 -4 94 -31 18 -51 1 -61
-110 -67 l-99 -5 -14 -58 c-8 -34 -10 -62 -5 -67 5 -5 59 -14 119 -20 61 -7
120 -18 133 -26 29 -19 28 -50 -2 -69 -21 -14 -38 -14 -130 -5 -59 6 -111 8
-116 5 -6 -3 -10 -44 -10 -90 0 -74 3 -87 23 -111 20 -23 34 -28 85 -32 87 -6
147 5 182 34 30 25 30 27 30 123 0 107 13 141 55 141 37 0 45 -28 45 -147 0
-93 -3 -115 -22 -153 -32 -63 -88 -89 -204 -97 -116 -7 -194 9 -240 49 -56 49
-68 81 -74 198 l-5 105 -80 13 c-98 16 -115 35 -76 83 l18 23 73 -18 c40 -9
76 -14 80 -9 11 12 31 113 24 124 -3 5 -29 9 -58 9 -58 0 -76 12 -76 51 0 38
17 48 90 51 l64 3 16 68 c10 38 23 73 31 78 22 14 45 10 64 -11z m121 -535
c46 -5 79 -3 93 4 20 11 21 10 21 -54 0 -66 0 -66 -35 -81 -19 -7 -66 -14
-104 -14 -90 0 -101 10 -101 97 l0 65 28 -6 c15 -3 59 -8 98 -11z"/>
</g>
</svg>
